<?xml version="1.0" standalone="no"?>
<!DOCTYPE svg PUBLIC "-//W3C//DTD SVG 20010904//EN"
 "http://www.w3.org/TR/2001/REC-SVG-20010904/DTD/svg10.dtd">
<svg version="1.0" xmlns="http://www.w3.org/2000/svg"
 width="520.000000pt" height="520.000000pt" viewBox="0 0 520.000000 520.000000"
 preserveAspectRatio="xMidYMid meet">
<metadata>
Created by potrace 1.14, written by Peter Selinger 2001-2017
</metadata>
<g transform="translate(0.000000,520.000000) scale(0.100000,-0.100000)"
fill="#000000" stroke="none">
<path d="M3407 5148 c-52 -40 -50 -115 4 -144 81 -41 157 45 108 124 -20 32
-81 43 -112 20z"/>
<path d="M1057 4938 c-9 -13 -25 -44 -37 -69 -19 -41 -30 -51 -95 -84 -41 -21
-76 -43 -79 -50 -7 -20 21 -53 52 -60 55 -12 106 -58 137 -123 25 -52 34 -62
56 -62 21 0 30 8 44 40 30 66 62 102 112 127 27 12 53 23 60 23 18 0 35 38 28
60 -3 11 -9 19 -13 18 -13 -3 -85 32 -117 57 -18 13 -44 49 -59 79 -15 31 -31
56 -36 56 -5 0 -15 3 -23 6 -10 3 -21 -4 -30 -18z"/>
<path d="M4298 4723 c-8 -10 -22 -35 -32 -55 -18 -41 -59 -75 -122 -102 -42
-18 -52 -40 -28 -63 7 -7 18 -13 25 -13 35 0 98 -52 125 -104 42 -80 68 -84
99 -16 23 51 58 83 128 115 31 15 57 33 57 40 0 18 -30 41 -74 56 -37 13 -106
81 -106 104 0 13 -37 55 -49 55 -4 0 -15 -8 -23 -17z"/>
<path d="M2496 4722 c-2 -1 -41 -4 -87 -7 -92 -5 -124 -9 -244 -31 -87 -16
-257 -60 -284 -74 -9 -4 -41 -18 -71 -30 -118 -47 -352 -184 -451 -264 -14
-12 -43 -34 -64 -51 -84 -65 -224 -201 -298 -289 -23 -27 -49 -57 -57 -65 -23
-24 -115 -153 -130 -181 -7 -14 -16 -27 -19 -30 -21 -17 -129 -223 -181 -345
-36 -85 -91 -266 -105 -344 -3 -19 -7 -37 -9 -40 -2 -3 -7 -28 -10 -55 -4 -27
-9 -52 -10 -55 -17 -29 -26 -391 -13 -541 8 -90 9 -98 33 -230 18 -97 16 -86
34 -165 25 -105 101 -158 186 -129 47 16 71 39 85 81 12 39 11 54 -24 208 -24
107 -29 136 -43 260 -10 86 -11 289 -2 365 19 165 19 160 38 245 98 439 386
872 763 1150 56 41 107 79 114 85 7 5 15 10 18 10 3 0 23 11 45 25 38 24 159
89 170 90 3 1 23 9 45 19 22 10 45 19 50 20 6 2 17 6 25 9 59 24 236 62 345
75 80 9 396 9 465 -1 136 -19 238 -39 290 -58 14 -5 34 -11 45 -13 74 -15 385
-157 405 -185 3 -4 32 -25 65 -47 63 -41 220 -192 270 -259 17 -22 36 -46 43
-53 6 -7 12 -17 12 -22 0 -5 7 -16 16 -25 41 -41 177 -344 200 -447 2 -10 6
-27 9 -39 2 -11 7 -29 10 -38 37 -119 59 -415 41 -571 -38 -337 -198 -621
-476 -844 -25 -20 -50 -40 -55 -45 -23 -18 -182 -110 -215 -124 -122 -53 -156
-65 -231 -82 -195 -44 -441 -33 -634 29 -61 19 -215 97 -215 107 0 5 -6 9 -14
9 -19 0 -176 155 -215 213 -156 231 -216 554 -146 787 63 206 230 396 455 517
73 39 103 83 98 143 -2 25 -12 57 -22 72 -21 32 -73 58 -115 58 -35 0 -125
-42 -211 -99 -73 -48 -69 -44 -171 -141 -173 -164 -290 -380 -326 -602 -10
-59 -9 -283 2 -338 4 -25 9 -56 11 -70 1 -14 3 -25 4 -25 1 0 3 -8 5 -17 4
-24 44 -148 54 -173 93 -212 137 -279 271 -416 159 -161 382 -279 618 -325 12
-2 34 -6 50 -10 90 -18 309 -23 422 -10 444 53 903 366 1143 781 45 76 114
233 122 275 2 11 6 24 9 28 10 16 46 190 53 259 18 160 8 407 -23 563 -3 14
-7 39 -10 55 -3 17 -10 48 -16 70 -6 22 -13 46 -14 53 -17 87 -102 308 -163
422 -38 72 -137 224 -179 273 -64 77 -213 219 -288 274 -72 53 -238 157 -253
159 -3 0 -36 15 -73 32 -113 53 -288 110 -423 138 -11 2 -31 6 -45 9 -111 22
-491 51 -504 37z"/>
<path d="M275 4108 c-29 -22 -28 -64 2 -85 35 -27 86 -2 86 41 0 53 -47 76
-88 44z"/>
<path d="M2627 4084 c-3 -3 -27 -8 -54 -10 -77 -6 -125 -13 -168 -23 -22 -5
-55 -12 -72 -16 -18 -3 -70 -17 -115 -32 -46 -15 -87 -27 -93 -29 -5 -1 -44
-17 -85 -35 -256 -113 -452 -258 -606 -450 -64 -80 -134 -183 -134 -198 0 -5
-3 -11 -7 -13 -11 -5 -59 -106 -99 -209 -35 -90 -76 -249 -90 -344 -3 -27 -8
-59 -10 -70 -22 -109 -20 -433 2 -575 13 -86 36 -197 44 -220 6 -14 11 -34 13
-45 2 -11 6 -27 9 -35 3 -8 14 -37 23 -65 30 -87 115 -256 167 -333 293 -434
771 -704 1398 -788 74 -10 378 -12 440 -3 36 6 79 12 95 14 61 9 233 49 265
62 8 3 20 7 26 8 33 7 201 73 289 114 108 49 270 139 322 177 17 13 34 24 38
24 6 0 114 82 195 148 105 87 268 259 339 358 51 71 29 165 -46 202 -74 37
-137 12 -208 -84 -41 -54 -218 -232 -290 -291 -56 -46 -208 -150 -269 -185
-206 -117 -486 -223 -666 -254 -14 -3 -31 -7 -38 -9 -63 -22 -412 -23 -514 -1
-12 3 -39 8 -58 10 -175 25 -444 117 -607 209 -291 165 -508 412 -615 702 -35
94 -76 259 -85 342 -10 82 -9 395 0 473 26 218 87 403 188 576 57 96 86 132
194 239 76 75 210 175 234 175 6 0 11 4 11 8 0 9 41 30 145 74 178 76 396 124
550 121 215 -3 476 -98 646 -233 155 -123 260 -279 313 -462 30 -105 38 -166
41 -302 5 -284 -90 -499 -291 -654 -57 -43 -210 -117 -264 -127 -3 -1 -14 -4
-25 -7 -11 -4 -38 -9 -60 -13 -82 -12 -114 -35 -135 -100 -21 -64 0 -118 64
-159 39 -25 135 -18 246 18 86 27 151 53 163 65 6 6 16 11 22 11 14 0 121 67
176 110 56 44 127 115 164 165 17 22 32 42 35 45 10 10 41 65 53 93 6 15 15
27 19 27 4 0 8 8 8 18 0 10 4 22 8 28 20 22 70 194 79 269 2 22 6 51 9 65 6
32 6 227 0 260 -3 14 -7 48 -10 77 -12 116 -73 304 -138 422 -137 250 -389
464 -668 569 -30 11 -64 23 -75 28 -32 12 -66 21 -135 35 -68 15 -97 19 -194
24 -49 3 -92 7 -96 10 -4 2 -10 2 -13 -1z"/>
<path d="M4744 4048 c-5 -7 -17 -29 -27 -48 -27 -54 -37 -63 -102 -95 -84 -42
-84 -62 -3 -100 55 -26 68 -38 99 -90 46 -77 70 -83 100 -23 31 62 56 85 120
114 88 40 87 59 -8 103 -60 29 -89 58 -112 119 -14 34 -50 44 -67 20z"/>
<path d="M2880 3607 c-52 -26 -57 -100 -9 -139 80 -67 180 60 103 130 -28 25
-57 28 -94 9z"/>
<path d="M2760 3109 c-108 -11 -211 -63 -284 -142 -53 -58 -104 -168 -112
-242 -3 -33 -7 -62 -7 -65 -1 -4 13 -98 17 -120 11 -54 76 -154 134 -207 43
-39 134 -91 171 -98 9 -2 16 -4 16 -5 0 -9 156 -13 196 -5 93 18 187 73 249
143 44 51 88 131 96 177 3 16 7 32 10 37 13 21 4 167 -15 218 -25 71 -44 110
-53 110 -5 0 -8 6 -8 13 0 22 -103 111 -160 138 -98 48 -152 58 -250 48z"/>
<path d="M4992 2970 c-49 -30 -69 -71 -71 -148 -4 -92 -7 -143 -15 -239 -11
-118 17 -169 102 -187 81 -18 150 33 167 124 8 43 17 156 20 262 3 100 1 109
-22 143 -43 63 -120 82 -181 45z"/>
<path d="M948 2903 c-26 -31 -29 -52 -8 -73 36 -36 87 -21 94 27 8 46 -56 80
-86 46z"/>
<path d="M4869 2247 c-27 -18 -42 -43 -74 -123 -22 -55 -49 -118 -59 -139 -45
-94 -17 -180 68 -209 95 -33 150 15 220 194 27 69 50 141 52 161 8 109 -115
178 -207 116z"/>
<path d="M234 2102 c-6 -4 -23 -31 -38 -60 -32 -64 -55 -84 -134 -122 -84 -39
-83 -59 2 -99 75 -35 105 -64 136 -131 23 -49 52 -68 71 -47 6 7 25 39 43 72
30 55 39 63 109 100 101 51 102 68 11 110 -75 35 -88 47 -129 123 -29 55 -48
70 -71 54z"/>
<path d="M463 1015 c-79 -64 -33 -197 70 -197 59 0 114 53 111 107 -3 69 -39
106 -109 112 -31 3 -47 -2 -72 -22z"/>
<path d="M4604 793 c-13 -14 -24 -31 -24 -37 0 -27 -62 -85 -115 -106 -44 -18
-55 -27 -55 -46 0 -18 12 -28 60 -50 46 -20 67 -37 90 -72 16 -25 30 -51 30
-58 0 -20 33 -34 53 -23 9 6 24 27 33 47 21 52 47 76 114 106 33 15 62 31 65
35 6 11 -7 50 -18 49 -4 0 -33 12 -63 27 -53 26 -91 69 -108 122 -11 33 -34
36 -62 6z"/>
<path d="M1502 783 c-7 -3 -23 -26 -36 -51 -29 -57 -48 -75 -117 -110 -75 -38
-73 -58 11 -99 59 -29 69 -39 95 -90 24 -47 35 -58 55 -58 19 0 30 10 50 49
32 61 68 89 137 111 60 19 67 26 59 61 -5 19 -11 24 -25 19 -22 -7 -101 27
-127 56 -10 11 -30 41 -44 67 -26 47 -36 54 -58 45z"/>
<path d="M3501 486 c-25 -27 -26 -49 -4 -87 34 -57 123 -24 123 45 0 8 -8 24
-19 37 -25 31 -73 33 -100 5z"/>
<path d="M2332 182 c-13 -10 -25 -33 -28 -53 -5 -28 -1 -41 21 -67 17 -20 36
-32 51 -32 84 0 125 90 67 145 -33 30 -78 33 -111 7z"/>
</g>
</svg>
